<mxfile host="app.diagrams.net" modified="2024-03-18T05:46:23.005Z" agent="Mozilla/5.0 (Windows NT 10.0; Win64; x64) AppleWebKit/537.36 (KHTML, like Gecko) Chrome/122.0.0.0 Safari/537.36" etag="0WA6iVOczq-i9W-96PGy" version="24.0.7" type="github">
  <diagram name="第 1 页" id="sK5RIRkPF6UacLaXZhpW">
    <mxGraphModel dx="1562" dy="818" grid="1" gridSize="10" guides="1" tooltips="1" connect="1" arrows="1" fold="1" page="1" pageScale="1" pageWidth="827" pageHeight="1169" math="0" shadow="0">
      <root>
        <mxCell id="0" />
        <mxCell id="1" parent="0" />
        <mxCell id="ByVjxR__OsraHfcclReg-1" value="shmssp" style="rounded=0;whiteSpace=wrap;html=1;" vertex="1" parent="1">
          <mxGeometry x="124" y="320" width="160" height="120" as="geometry" />
        </mxCell>
        <mxCell id="ByVjxR__OsraHfcclReg-2" value="备集群" style="rounded=0;whiteSpace=wrap;html=1;" vertex="1" parent="1">
          <mxGeometry x="467" y="322" width="160" height="120" as="geometry" />
        </mxCell>
        <mxCell id="ByVjxR__OsraHfcclReg-3" value="主集群" style="text;html=1;align=center;verticalAlign=middle;whiteSpace=wrap;rounded=0;" vertex="1" parent="1">
          <mxGeometry x="174" y="270" width="60" height="30" as="geometry" />
        </mxCell>
        <mxCell id="ByVjxR__OsraHfcclReg-4" value="从集群" style="text;html=1;align=center;verticalAlign=middle;whiteSpace=wrap;rounded=0;" vertex="1" parent="1">
          <mxGeometry x="517" y="270" width="60" height="30" as="geometry" />
        </mxCell>
        <mxCell id="ByVjxR__OsraHfcclReg-6" value="" style="endArrow=classic;startArrow=classic;html=1;rounded=0;exitX=1;exitY=0.5;exitDx=0;exitDy=0;entryX=0;entryY=0.5;entryDx=0;entryDy=0;" edge="1" parent="1" source="ByVjxR__OsraHfcclReg-12" target="ByVjxR__OsraHfcclReg-2">
          <mxGeometry width="50" height="50" relative="1" as="geometry">
            <mxPoint x="357" y="552" as="sourcePoint" />
            <mxPoint x="407" y="502" as="targetPoint" />
          </mxGeometry>
        </mxCell>
        <mxCell id="ByVjxR__OsraHfcclReg-7" value="wan" style="edgeLabel;html=1;align=center;verticalAlign=middle;resizable=0;points=[];" vertex="1" connectable="0" parent="ByVjxR__OsraHfcclReg-6">
          <mxGeometry x="0.1969" y="-2" relative="1" as="geometry">
            <mxPoint as="offset" />
          </mxGeometry>
        </mxCell>
        <mxCell id="ByVjxR__OsraHfcclReg-10" value="" style="endArrow=classic;startArrow=classic;html=1;rounded=0;exitX=1;exitY=0.5;exitDx=0;exitDy=0;entryX=0;entryY=0.5;entryDx=0;entryDy=0;" edge="1" parent="1" source="ByVjxR__OsraHfcclReg-1" target="ByVjxR__OsraHfcclReg-9">
          <mxGeometry width="50" height="50" relative="1" as="geometry">
            <mxPoint x="284" y="380" as="sourcePoint" />
            <mxPoint x="414" y="380" as="targetPoint" />
          </mxGeometry>
        </mxCell>
        <mxCell id="ByVjxR__OsraHfcclReg-9" value="mesh gateway" style="ellipse;whiteSpace=wrap;html=1;aspect=fixed;" vertex="1" parent="1">
          <mxGeometry x="244" y="340" width="80" height="80" as="geometry" />
        </mxCell>
        <mxCell id="ByVjxR__OsraHfcclReg-13" value="" style="endArrow=classic;startArrow=classic;html=1;rounded=0;exitX=1;exitY=0.5;exitDx=0;exitDy=0;entryX=0;entryY=0.5;entryDx=0;entryDy=0;" edge="1" parent="1" source="ByVjxR__OsraHfcclReg-9" target="ByVjxR__OsraHfcclReg-12">
          <mxGeometry width="50" height="50" relative="1" as="geometry">
            <mxPoint x="310" y="380" as="sourcePoint" />
            <mxPoint x="500" y="380" as="targetPoint" />
          </mxGeometry>
        </mxCell>
        <mxCell id="ByVjxR__OsraHfcclReg-15" value="wan" style="edgeLabel;html=1;align=center;verticalAlign=middle;resizable=0;points=[];" vertex="1" connectable="0" parent="ByVjxR__OsraHfcclReg-13">
          <mxGeometry x="0.104" y="4" relative="1" as="geometry">
            <mxPoint as="offset" />
          </mxGeometry>
        </mxCell>
        <mxCell id="ByVjxR__OsraHfcclReg-12" value="mesh gateway" style="ellipse;whiteSpace=wrap;html=1;aspect=fixed;" vertex="1" parent="1">
          <mxGeometry x="427" y="340" width="80" height="80" as="geometry" />
        </mxCell>
      </root>
    </mxGraphModel>
  </diagram>
</mxfile>
